<?xml version="1.0" standalone="no"?><!DOCTYPE svg PUBLIC "-//W3C//DTD SVG 1.1//EN" "http://www.w3.org/Graphics/SVG/1.1/DTD/svg11.dtd"><svg class="icon" width="200px" height="200.00px" viewBox="0 0 1024 1024" version="1.1" xmlns="http://www.w3.org/2000/svg"><path d="M673.8 137.7H358.1L134.9 360.9v315.7l223.2 223.2h315.7L897 676.6V360.9z" fill="#FCDBD6" /><path d="M513.1 516.9m-277.5 0a277.5 277.5 0 1 0 555 0 277.5 277.5 0 1 0-555 0Z" fill="#FFFFFF" /><path d="M513.2 449.8m-104.5 0a104.5 104.5 0 1 0 209 0 104.5 104.5 0 1 0-209 0Z" fill="#FEDD5D" /><path d="M324.3 663.9c0-60.5 85.1-109.5 190-109.5s190 49 190 109.5" fill="#69CAFE" /><path d="M473.4 432.6m-13 0a13 13 0 1 0 26 0 13 13 0 1 0-26 0Z" fill="#FFFFFF" /><path d="M556.3 432.6m-13 0a13 13 0 1 0 26 0 13 13 0 1 0-26 0Z" fill="#FFFFFF" /><path d="M470.9 476.3s-0.9-2.1 1-3.8c2-1.7 4.5 0 4.5 0s32.3 45.5 72.8 0.1c0.2 0 2.2-2.5 4.6 0 2.5 2.5 0 5.3 0 5.3s-40.2 49.7-82.9-1.6z" fill="#FFFFFF" /></svg>